<?xml version="1.0" encoding="UTF-8" standalone="no"?>
<!-- Created with Inkscape (http://www.inkscape.org/) -->

<svg
   xmlns:dc="http://purl.org/dc/elements/1.1/"
   xmlns:cc="http://creativecommons.org/ns#"
   xmlns:rdf="http://www.w3.org/1999/02/22-rdf-syntax-ns#"
   xmlns:svg="http://www.w3.org/2000/svg"
   xmlns="http://www.w3.org/2000/svg"
   xmlns:sodipodi="http://sodipodi.sourceforge.net/DTD/sodipodi-0.dtd"
   xmlns:inkscape="http://www.inkscape.org/namespaces/inkscape"
   width="512"
   height="512"
   viewBox="0 0 135.46666 135.46667"
   version="1.1"
   id="svg3813"
   inkscape:version="0.92.4 (5da689c313, 2019-01-14)"
   sodipodi:docname="cine.svg"
   inkscape:export-filename="C:\Users\igorosabel\Documents\Angular\Cine\src\assets\icons\icon-512x512.png"
   inkscape:export-xdpi="96.013"
   inkscape:export-ydpi="96.013">
  <defs
     id="defs3807" />
  <sodipodi:namedview
     id="base"
     pagecolor="#ffffff"
     bordercolor="#666666"
     borderopacity="1.0"
     inkscape:pageopacity="0.0"
     inkscape:pageshadow="2"
     inkscape:zoom="1.0040916"
     inkscape:cx="-16.096917"
     inkscape:cy="280.18153"
     inkscape:document-units="mm"
     inkscape:current-layer="layer1"
     showgrid="false"
     units="px"
     inkscape:window-width="1920"
     inkscape:window-height="1001"
     inkscape:window-x="-9"
     inkscape:window-y="-9"
     inkscape:window-maximized="1" />
  <metadata
     id="metadata3810">
    <rdf:RDF>
      <cc:Work
         rdf:about="">
        <dc:format>image/svg+xml</dc:format>
        <dc:type
           rdf:resource="http://purl.org/dc/dcmitype/StillImage" />
        <dc:title />
      </cc:Work>
    </rdf:RDF>
  </metadata>
  <g
     inkscape:label="Layer 1"
     inkscape:groupmode="layer"
     id="layer1"
     transform="translate(0,-161.53332)">
    <rect
       id="rect3815"
       width="124.31441"
       height="124.27776"
       x="5.5761251"
       y="167.12776"
       style="fill:#ffffff;fill-opacity:1;stroke:#000000;stroke-width:11.17056561;stroke-linejoin:round;stroke-miterlimit:4;stroke-dasharray:none;stroke-opacity:1"
       ry="23.397629"
       rx="0" />
    <g
       transform="matrix(0.18759973,0,0,0.18759973,19.707798,181.24093)"
       id="g16">
      <path
         inkscape:connector-curvature="0"
         style="clip-rule:evenodd;fill-rule:evenodd"
         d="m 509.071,174.09 c 3.905,-3.905 3.905,-10.236 0,-14.142 L 479.68,130.556 c -1.875,-1.875 -4.419,-2.929 -7.071,-2.929 -2.652,0 -5.196,1.054 -7.071,2.93 -4.241,4.241 -9.879,6.576 -15.877,6.576 -5.998,0 -11.637,-2.335 -15.878,-6.577 -4.241,-4.241 -6.577,-9.88 -6.577,-15.878 0,-5.998 2.336,-11.637 6.577,-15.878 1.876,-1.876 2.929,-4.419 2.929,-7.071 0,-2.652 -1.054,-5.195 -2.929,-7.071 L 404.39,55.268 c -3.904,-3.902 -10.235,-3.904 -14.142,0 -4.241,4.241 -9.88,6.577 -15.878,6.577 -5.998,0 -11.637,-2.336 -15.878,-6.577 -3.905,-3.904 -10.237,-3.904 -14.142,0 l -25.14,25.14 -22.32,-22.32 c -1.875,-1.875 -4.418,-2.929 -7.071,-2.929 -2.652,0 -5.196,1.054 -7.071,2.929 -4.242,4.242 -9.88,6.577 -15.878,6.577 -5.998,0 -11.637,-2.335 -15.878,-6.577 -1.875,-1.875 -4.418,-2.929 -7.071,-2.929 -2.652,0 -5.196,1.054 -7.071,2.929 l -88.676,88.677 c -3.905,3.905 -3.905,10.237 0,14.143 1.953,1.952 4.512,2.929 7.071,2.929 2.559,0 5.119,-0.977 7.071,-2.929 l 82.446,-82.447 c 13.521,8.246 30.694,8.246 44.216,0 l 16.09,16.091 -194.639,194.638 c -1.876,1.876 -2.929,4.419 -2.929,7.071 0,2.652 1.054,5.196 2.929,7.071 4.241,4.241 6.577,9.88 6.577,15.878 0,5.998 -2.336,11.637 -6.577,15.878 -1.876,1.876 -2.929,4.419 -2.929,7.071 0,2.652 1.054,5.195 2.929,7.071 l 29.392,29.391 c 3.905,3.904 10.236,3.904 14.142,0 4.241,-4.241 9.88,-6.577 15.877,-6.577 5.998,0 11.637,2.336 15.879,6.577 8.754,8.754 8.754,22.998 0.002,31.754 l -0.002,0.002 -25.982,25.98 c -13.521,-8.246 -30.694,-8.247 -44.215,10e-4 L 98.59,419.426 c 9.964,-16.34 7.888,-38.009 -6.23,-52.128 C 78.243,353.181 56.572,351.106 40.232,361.069 L 23.3,344.137 c 8.246,-13.521 8.246,-30.694 0,-44.216 l 82.446,-82.446 c 3.905,-3.905 3.905,-10.237 0,-14.143 -3.905,-3.904 -10.237,-3.904 -14.142,0 L 2.929,292.009 c -3.905,3.905 -3.905,10.237 0,14.143 8.755,8.755 8.754,23.001 0,31.757 -3.905,3.905 -3.905,10.236 0,14.142 l 29.392,29.391 c 3.905,3.904 10.237,3.904 14.142,0 4.241,-4.241 9.88,-6.577 15.878,-6.577 5.998,0 11.637,2.336 15.877,6.576 8.755,8.756 8.755,23.002 10e-4,31.756 -3.905,3.905 -3.905,10.237 -10e-4,14.143 l 29.392,29.393 c 1.876,1.875 4.419,2.929 7.071,2.929 2.652,0 5.196,-1.054 7.071,-2.93 8.755,-8.755 23,-8.754 31.755,0 3.905,3.904 10.236,3.904 14.142,0 l 25.14,-25.139 22.321,22.32 c 1.875,1.875 4.419,2.929 7.071,2.929 2.652,0 5.196,-1.054 7.071,-2.93 4.241,-4.241 9.88,-6.576 15.877,-6.576 5.998,0 11.637,2.335 15.878,6.576 3.905,3.904 10.237,3.904 14.142,0 L 509.071,219.99 c 3.905,-3.905 3.905,-10.237 0,-14.143 -8.755,-8.755 -8.755,-23.001 0,-31.757 z m -20.372,37.987 -31.391,31.391 -10.031,-10.031 c -3.904,-3.903 -10.236,-3.903 -14.142,0 -3.905,3.905 -3.905,10.236 0,14.142 l 10.031,10.032 -175.921,175.919 c -6.593,-4.038 -14.188,-6.195 -22.116,-6.195 -7.927,0 -15.523,2.158 -22.116,6.196 L 206.09,416.607 c 9.964,-16.34 7.888,-38.01 -6.23,-52.128 -8.019,-8.019 -18.68,-12.434 -30.02,-12.434 -7.927,0 -15.523,2.158 -22.116,6.195 l -16.915,-16.914 c 4.038,-6.593 6.196,-14.188 6.196,-22.116 0,-7.928 -2.158,-15.523 -6.196,-22.116 l 175.92,-175.921 10.032,10.031 c 1.953,1.952 4.512,2.929 7.071,2.929 2.559,0 5.119,-0.977 7.071,-2.929 3.905,-3.906 3.905,-10.237 0,-14.143 l -10.031,-10.03 5.406,-5.407 c 10e-4,-10e-4 0.003,-0.002 0.004,-0.003 0.002,-10e-4 0.003,-0.003 0.004,-0.004 l 25.969,-25.969 c 6.593,4.038 14.189,6.195 22.116,6.195 7.928,0 15.523,-2.157 22.116,-6.196 l 16.915,16.915 c -4.039,6.594 -6.196,14.188 -6.196,22.116 0,11.341 4.416,22.002 12.435,30.021 8.019,8.019 18.68,12.435 30.02,12.435 7.927,0 15.523,-2.158 22.116,-6.196 l 16.923,16.923 c -8.247,13.522 -8.247,30.694 -10e-4,44.216 z"
         id="path2" />
      <path
         inkscape:connector-curvature="0"
         style="clip-rule:evenodd;fill-rule:evenodd"
         d="m 358.293,144.453 c -3.905,-3.905 -10.236,-3.905 -14.142,-0.001 -3.905,3.905 -3.905,10.236 0,14.142 l 17.102,17.102 c 1.953,1.953 4.512,2.93 7.071,2.93 2.559,0 5.118,-0.977 7.071,-2.929 3.905,-3.905 3.905,-10.236 0.001,-14.142 z"
         id="path4" />
      <path
         inkscape:connector-curvature="0"
         style="clip-rule:evenodd;fill-rule:evenodd"
         d="m 402.784,188.944 c -3.905,-3.904 -10.237,-3.904 -14.142,0 -3.905,3.905 -3.905,10.237 0,14.143 l 17.103,17.103 c 1.952,1.952 4.512,2.929 7.071,2.929 2.559,0 5.118,-0.977 7.071,-2.929 3.905,-3.905 3.905,-10.237 0,-14.143 z"
         id="path6" />
      <path
         inkscape:connector-curvature="0"
         style="clip-rule:evenodd;fill-rule:evenodd"
         d="m 286.152,216.449 c -3.905,-3.903 -10.237,-3.904 -14.142,0 l -73.806,73.805 c -3.905,3.905 -3.905,10.237 -0.001,14.143 1.953,1.952 4.512,2.929 7.071,2.929 2.559,0 5.119,-0.977 7.071,-2.929 l 73.806,-73.805 c 3.906,-3.906 3.906,-10.238 10e-4,-14.143 z"
         id="path8" />
      <path
         inkscape:connector-curvature="0"
         style="clip-rule:evenodd;fill-rule:evenodd"
         d="m 352.267,259.668 -92.324,92.323 c -3.905,3.905 -3.905,10.237 0,14.143 1.953,1.952 4.511,2.929 7.071,2.929 2.559,0 5.119,-0.977 7.071,-2.929 l 92.324,-92.323 c 3.905,-3.905 3.905,-10.237 0,-14.143 -3.906,-3.903 -10.237,-3.904 -14.142,0 z"
         id="path10" />
      <path
         inkscape:connector-curvature="0"
         style="clip-rule:evenodd;fill-rule:evenodd"
         d="m 348.424,215.914 c -3.905,-3.904 -10.237,-3.904 -14.142,0 L 229.074,321.123 c -3.905,3.905 -3.905,10.237 0,14.143 1.953,1.952 4.512,2.929 7.071,2.929 2.559,0 5.119,-0.977 7.071,-2.929 L 348.425,230.057 c 3.904,-3.906 3.904,-10.238 -0.001,-14.143 z"
         id="path12" />
      <path
         inkscape:connector-curvature="0"
         style="clip-rule:evenodd;fill-rule:evenodd"
         d="m 126.961,192.12 c 5.508,0 10,-4.492 10,-10 0,-5.508 -4.492,-10 -10,-10 -5.508,0 -10,4.492 -10,10 0,5.507 4.492,10 10,10 z"
         id="path14" />
    </g>
  </g>
</svg>
